<svg width="435" height="113" viewBox="0 0 435 113" fill="none" xmlns="http://www.w3.org/2000/svg">
<path d="M162.491 113C159.994 113 157.969 113 157.969 113V79.7092C157.969 78.1272 156.689 76.8387 155.122 76.8387H124.723C118.169 76.8387 112.839 71.538 112.839 64.9296V11.9411C112.839 10.3591 111.558 9.07062 109.992 9.07062L57.0275 9.03873C55.4544 9.03873 54.1806 10.3272 54.1806 11.9092V64.8977C54.1806 71.5061 48.8816 76.8387 42.3216 76.8387H11.9099C10.3432 76.8387 9.03116 78.1272 9.03116 79.7092V113C9.03116 113 7.02494 113 4.52195 113C2.01895 113 0 113 0 113V79.7857C0 73.1773 5.36265 67.8 11.9163 67.8H42.3152C43.882 67.8 45.1622 66.5115 45.1622 64.9296V11.9857C45.1622 5.37731 50.493 0 57.053 0H109.992C116.545 0 121.863 5.37731 121.863 11.9857V64.9296C121.863 66.5115 123.143 67.8 124.71 67.8H155.128C161.682 67.8 167 73.1773 167 79.7857V113C166.994 113 164.987 113 162.491 113Z" fill="#FCD434"/>
<path d="M83.5541 67.7936C74.816 67.7936 67.6955 74.8358 67.6955 83.4854C67.6955 83.8809 67.6955 113 67.6955 113C67.6955 113 70.5742 113 74.1281 113H76.7266C76.7266 105.888 76.7266 83.7214 76.7266 83.4854C76.7266 79.8623 79.9621 76.9089 83.5541 76.9089C87.1462 76.9089 90.267 79.8559 90.267 83.4854C90.267 83.715 90.267 105.888 90.267 113H92.8655C96.4194 113 99.2982 113 99.2982 113C99.2982 113 99.2982 83.8809 99.2982 83.4854C99.2918 74.8358 92.1395 67.7936 83.5541 67.7936Z" fill="#FCD434"/>
<path d="M27.0807 113C24.5905 113 22.5652 113 22.5652 113V94.9544C22.5652 92.4348 24.5841 90.3936 27.0807 90.3936C29.571 90.3936 31.5963 92.4348 31.5963 94.9544V113C31.5899 113 29.571 113 27.0807 113Z" fill="#FCD434"/>
<path d="M49.6459 113C47.1556 113 45.1303 113 45.1303 113V94.9544C45.1303 92.4348 47.1493 90.3936 49.6459 90.3936C52.1425 90.3936 54.1615 92.4348 54.1615 94.9544V113C54.1615 113 52.1425 113 49.6459 113Z" fill="#FCD434"/>
<path d="M117.348 113C114.857 113 112.832 113 112.832 113V94.9544C112.832 92.4348 114.851 90.3936 117.348 90.3936C119.844 90.3936 121.863 92.4348 121.863 94.9544V113C121.863 113 119.838 113 117.348 113Z" fill="#FCD434"/>
<path d="M139.913 113C137.423 113 135.397 113 135.397 113V94.9544C135.397 92.4348 137.416 90.3936 139.913 90.3936C142.41 90.3936 144.428 92.4348 144.428 94.9544V113C144.428 113 142.41 113 139.913 113Z" fill="#FCD434"/>
<path d="M94.7762 31.6323H72.2174C69.7208 31.6323 67.7018 29.6103 67.7018 27.1098C67.7018 24.6157 69.7208 22.5872 72.2174 22.5872H94.7762C97.2728 22.5872 99.2918 24.6093 99.2918 27.1098C99.2918 29.6103 97.2728 31.6323 94.7762 31.6323Z" fill="#FCD434"/>
<path d="M94.7762 54.2323H72.2174C69.7208 54.2323 67.7018 52.2103 67.7018 49.7098C67.7018 47.2157 69.7208 45.1872 72.2174 45.1872H94.7762C97.2728 45.1872 99.2918 47.2093 99.2918 49.7098C99.2918 52.2103 97.2728 54.2323 94.7762 54.2323Z" fill="#FCD434"/>
<path d="M194 80.7154V2.51406L207.052 0.0367092V80.7154H194Z" fill="#3F3E36"/>
<path d="M274.545 82L269.287 78.9905C266.658 77.6967 263.846 77.4123 260.849 78.128L257.017 79.0914C254.461 79.7337 251.759 80.275 248.91 80.7063C246.06 81.1375 243.505 81.3485 241.244 81.3485C234.746 81.3485 229.69 79.8805 226.069 76.9352C222.457 73.9991 220.646 69.9069 220.646 64.6678C220.646 61.0068 221.372 57.9973 222.834 55.6301C224.295 53.2628 226.244 51.4186 228.698 50.0882C231.143 48.7577 233.992 47.831 237.246 47.2897C240.5 46.7483 243.91 46.4823 247.485 46.4823H260.298V41.6377C260.298 37.9125 259.204 35.3067 257.007 33.8386C254.82 32.3706 251.971 31.6366 248.459 31.6366C245.978 31.6366 243.147 31.921 239.966 32.4991C236.786 33.0771 233.56 33.8662 230.269 34.8663L224.681 36.4811L222.815 26.3699L228.073 24.7551C235.812 22.3878 242.972 21.2042 249.544 21.2042C252.835 21.2042 255.858 21.562 258.634 22.2777C261.41 22.9934 263.818 24.1587 265.868 25.7735C267.908 27.3884 269.517 29.4712 270.684 32.0128C271.852 34.5635 272.44 37.6648 272.44 41.3165V69.5032L279.343 73.5954L274.545 82ZM260.417 55.5383H245.739C241.796 55.5383 238.726 56.1806 236.538 57.4743C234.35 58.768 233.248 60.9885 233.248 64.1448C233.248 66.8699 234.139 68.8609 235.931 70.1179C237.724 71.3749 240.261 71.9989 243.542 71.9989C245.003 71.9989 246.722 71.8521 248.689 71.5676C250.665 71.2832 252.779 70.8519 255.04 70.2739L260.408 68.9802V55.5383H260.417Z" fill="#3F3E36"/>
<path d="M319.041 21.4336C327.864 21.4336 334.363 24.0119 338.526 29.1776C342.69 34.3433 344.767 41.7294 344.767 51.336C344.767 55.9237 344.142 60.0709 342.902 63.7594C341.652 67.4571 339.841 70.595 337.451 73.1733C335.07 75.7607 332.166 77.7426 328.747 79.1465C325.328 80.5411 321.449 81.2476 317.11 81.2476C314.757 81.2476 312.184 81.0641 309.371 80.7063C306.889 80.3943 303.001 79.7153 298.626 78.5501C296.273 77.9078 294.536 76.8802 293.396 75.4855C292.257 74.0909 291.687 72.2007 291.687 69.8335V2.36725L304.739 0V24.1036C307.652 23.1769 310.033 22.4888 312.524 22.0575C315.024 21.6446 317.193 21.4336 319.041 21.4336ZM317.12 31.9761C315.768 31.9761 314.187 32.1045 312.368 32.3522C310.557 32.6092 308.231 33.2331 304.748 34.2332V69.0903C306.522 69.5215 307.689 69.8427 308.902 70.0629C310.116 70.2739 311.182 70.4574 312.101 70.6042C313.029 70.751 313.829 70.8336 314.5 70.8703C315.171 70.907 315.87 70.9254 316.586 70.9254C322.212 70.9254 326.265 69.1362 328.756 65.5486C331.247 61.961 332.488 57.2633 332.488 51.4553C332.488 45.3629 331.311 40.5917 328.967 37.1418C326.624 33.701 322.671 31.9761 317.12 31.9761Z" fill="#3F3E36"/>
<path d="M356.597 80.7154V32.8385C356.597 30.3245 357.222 28.3885 358.481 27.0306C359.74 25.6726 361.551 24.6633 363.922 24.0211C368.435 22.8741 371.257 22.1401 374.327 21.8189C377.397 21.4978 378.16 21.3327 380.522 21.3327C384.815 21.3327 386.662 21.874 389.732 22.9475C392.802 24.021 395.284 25.4983 397.168 27.3609C399.052 29.2235 400.44 31.453 401.332 34.0313C402.214 36.6188 402.664 39.4448 402.664 42.5277V80.7246H389.907V43.6104C389.907 42.0322 389.723 40.5458 389.355 39.142C388.988 37.7473 388.335 36.527 387.416 35.481C386.487 34.4442 385.743 33.6368 384.19 33.0587C382.636 32.4899 382.048 32.2146 379.759 32.1962C378.381 32.1871 377.057 32.2789 375.035 32.5633C372.857 32.8752 371.266 33.4533 369.594 34.1323V80.7154H356.597Z" fill="#3F3E36"/>
<path d="M421.967 80.7154V2.49569L435 0.0183686V80.7154H421.967Z" fill="#3F3E36"/>
<path fill-rule="evenodd" clip-rule="evenodd" d="M211.724 110.651L212.353 112.774H215.589L211.965 101.462C211.807 101 211.539 100.642 211.169 100.387C210.8 100.123 210.328 100 209.764 100C209.163 100 208.682 100.132 208.312 100.377C207.943 100.623 207.684 100.991 207.527 101.481L203.736 112.774H206.935L207.601 110.651H211.724ZM208.174 108.311L209.69 103.283L211.151 108.311H208.174Z" fill="#3F3E36"/>
<path d="M194.444 112.358C194.74 112.632 195.146 112.774 195.683 112.774H202.589V110.16H197.227V100.142H194V111.198C194 111.698 194.148 112.085 194.444 112.358Z" fill="#3F3E36"/>
<path fill-rule="evenodd" clip-rule="evenodd" d="M218.732 112.774C218.196 112.774 217.789 112.632 217.493 112.358C217.198 112.085 217.05 111.689 217.05 111.179V101.736C217.05 101.226 217.198 100.83 217.493 100.557C217.789 100.283 218.205 100.142 218.732 100.142H223.059C224.271 100.142 225.204 100.415 225.852 100.943C226.508 101.481 226.832 102.311 226.832 103.434C226.832 103.868 226.758 104.274 226.619 104.67C226.48 105.066 226.277 105.415 226.018 105.745L225.583 106.321L226.083 106.849C226.462 107.208 226.748 107.604 226.952 108.019C227.155 108.434 227.248 108.887 227.248 109.377C227.248 110.453 226.896 111.283 226.212 111.877C225.528 112.472 224.492 112.774 223.124 112.774H218.732ZM223.827 103.604C223.827 103.255 223.725 102.962 223.531 102.736C223.337 102.509 222.995 102.396 222.532 102.396H220.184V105.321H223.059L223.475 104.708C223.707 104.387 223.827 104.019 223.827 103.604ZM220.175 107.547V110.5H222.69C223.17 110.5 223.531 110.387 223.771 110.16C224.012 109.934 224.141 109.632 224.141 109.264C224.141 108.868 223.984 108.5 223.679 108.16L223.133 107.547H220.175Z" fill="#3F3E36"/>
<path d="M234.136 103.679C233.84 104.481 233.692 105.415 233.692 106.481C233.692 107.557 233.831 108.491 234.127 109.302C234.413 110.104 234.811 110.774 235.329 111.302C235.846 111.83 236.466 112.236 237.187 112.5C237.908 112.764 238.694 112.896 239.563 112.896C240.164 112.896 240.747 112.849 241.311 112.736C241.875 112.623 242.466 112.481 243.076 112.283L244.038 111.981L243.659 109.368L242.623 109.726C242.152 109.887 241.699 110 241.264 110.075C240.821 110.151 240.395 110.189 239.97 110.189C239.027 110.189 238.296 109.887 237.779 109.292C237.261 108.698 237.002 107.764 237.002 106.481C237.002 105.217 237.261 104.274 237.769 103.67C238.287 103.066 239.018 102.764 239.97 102.764C240.395 102.764 240.821 102.802 241.255 102.887C241.69 102.972 242.152 103.094 242.651 103.255L243.65 103.575L244.029 100.981L243.03 100.66C242.439 100.462 241.865 100.311 241.292 100.208C240.728 100.104 240.146 100.057 239.572 100.066C238.712 100.066 237.927 100.198 237.215 100.462C236.494 100.726 235.874 101.132 235.356 101.67C234.839 102.208 234.432 102.877 234.136 103.679Z" fill="#3F3E36"/>
<path d="M254.911 111.708C254.014 112.566 252.701 113 250.972 113C249.243 113 247.931 112.575 247.043 111.717C246.155 110.858 245.702 109.66 245.702 108.104V100.142H248.901V108.16C248.901 109.594 249.595 110.321 250.972 110.321C252.368 110.321 253.062 109.604 253.062 108.16V100.142H256.261V108.104C256.261 109.642 255.808 110.849 254.911 111.708Z" fill="#3F3E36"/>
<path d="M258.85 112.358C259.146 112.632 259.552 112.774 260.089 112.774H266.995V110.16H261.633V100.142H258.406V111.198C258.406 111.698 258.554 112.085 258.85 112.358Z" fill="#3F3E36"/>
<path d="M272.57 102.604V112.774H269.371V102.604H265.941V100.142H275.991V102.604H272.57Z" fill="#3F3E36"/>
<path d="M283.009 113C284.738 113 286.051 112.566 286.948 111.708C287.844 110.849 288.298 109.642 288.298 108.104V100.142H285.098V108.16C285.098 109.604 284.405 110.321 283.009 110.321C281.631 110.321 280.938 109.594 280.938 108.16V100.142H277.739V108.104C277.739 109.66 278.192 110.858 279.08 111.717C279.967 112.575 281.28 113 283.009 113Z" fill="#3F3E36"/>
<path fill-rule="evenodd" clip-rule="evenodd" d="M297.663 112.774L295.879 108.292H293.632V112.774H290.433V101.736C290.433 101.274 290.59 100.887 290.896 100.594C291.201 100.292 291.598 100.142 292.097 100.142H296.462C297.7 100.142 298.681 100.462 299.392 101.113C300.104 101.755 300.456 102.679 300.456 103.877C300.456 104.425 300.354 104.915 300.141 105.359C299.929 105.802 299.679 106.217 299.374 106.594L298.727 107.396L301.01 112.783H297.663V112.774ZM297.395 103.981C297.395 103.519 297.275 103.151 297.044 102.868C296.813 102.585 296.434 102.453 295.916 102.453H293.632V105.981H296.397L296.85 105.387C297.007 105.179 297.136 104.962 297.238 104.736C297.349 104.5 297.395 104.255 297.395 103.981Z" fill="#3F3E36"/>
<path fill-rule="evenodd" clip-rule="evenodd" d="M309.831 110.651L310.46 112.774H313.696L310.071 101.462C309.914 101 309.646 100.642 309.276 100.387C308.906 100.123 308.435 100 307.871 100C307.27 100 306.789 100.132 306.419 100.377C306.049 100.623 305.791 100.991 305.633 101.481L301.843 112.774H305.042L305.707 110.651H309.831ZM306.281 108.311L307.797 103.283L309.258 108.311H306.281Z" fill="#3F3E36"/>
<path d="M316.839 112.774C316.303 112.774 315.896 112.632 315.6 112.358C315.304 112.085 315.156 111.698 315.156 111.198V100.142H318.383V110.16H323.746V112.774H316.839Z" fill="#3F3E36"/>
<path d="M330.578 103.679C330.283 104.481 330.135 105.415 330.135 106.481C330.135 107.557 330.273 108.491 330.569 109.302C330.856 110.104 331.253 110.774 331.771 111.302C332.289 111.83 332.908 112.236 333.629 112.5C334.351 112.764 335.137 112.896 336.006 112.896C336.607 112.896 337.189 112.849 337.753 112.736C338.317 112.623 338.909 112.481 339.519 112.283L340.481 111.981L340.101 109.368L339.066 109.726C338.594 109.887 338.141 110 337.707 110.075C337.263 110.151 336.838 110.189 336.412 110.189C335.469 110.189 334.739 109.887 334.221 109.292C333.703 108.698 333.445 107.764 333.445 106.481C333.445 105.217 333.703 104.274 334.212 103.67C334.73 103.066 335.46 102.764 336.412 102.764C336.838 102.764 337.263 102.802 337.698 102.887C338.132 102.972 338.594 103.094 339.094 103.255L340.092 103.575L340.471 100.981L339.473 100.66C338.881 100.462 338.308 100.311 337.735 100.208C337.171 100.104 336.588 100.057 336.015 100.066C335.155 100.066 334.369 100.198 333.657 100.462C332.936 100.726 332.317 101.132 331.799 101.67C331.281 102.208 330.874 102.877 330.578 103.679Z" fill="#3F3E36"/>
<path d="M342.228 112.774V100.142H345.473V112.774H342.228Z" fill="#3F3E36"/>
<path d="M352.861 113C354.59 113 355.903 112.566 356.799 111.708C357.696 110.849 358.14 109.642 358.149 108.104V100.142H354.95V108.16C354.95 109.604 354.257 110.321 352.861 110.321C351.483 110.321 350.79 109.594 350.79 108.16V100.142H347.591V108.104C347.591 109.66 348.044 110.858 348.931 111.717C349.819 112.575 351.132 113 352.861 113Z" fill="#3F3E36"/>
<path fill-rule="evenodd" clip-rule="evenodd" d="M371.103 106.491C371.103 107.5 370.964 108.387 370.677 109.16C370.391 109.934 369.993 110.594 369.466 111.132C368.948 111.67 368.32 112.075 367.589 112.358C366.859 112.632 366.045 112.774 365.139 112.774H361.958C361.422 112.774 361.015 112.632 360.72 112.358C360.424 112.085 360.276 111.698 360.276 111.198V101.755C360.276 101.245 360.424 100.849 360.72 100.566C361.015 100.283 361.431 100.142 361.958 100.142H365.167C366.073 100.142 366.896 100.283 367.626 100.575C368.357 100.868 368.976 101.283 369.494 101.821C370.012 102.368 370.409 103.028 370.686 103.821C370.964 104.613 371.103 105.5 371.103 106.491ZM367.959 106.491C367.959 105.264 367.7 104.311 367.182 103.632C366.665 102.943 365.934 102.604 364.991 102.604H363.475V110.311H365.093C365.999 110.311 366.711 109.991 367.21 109.34C367.709 108.698 367.959 107.755 367.959 106.491Z" fill="#3F3E36"/>
<path fill-rule="evenodd" clip-rule="evenodd" d="M379.812 110.651L380.441 112.774H383.677L380.052 101.462C379.895 101 379.627 100.642 379.257 100.387C378.887 100.123 378.416 100 377.852 100C377.251 100 376.77 100.132 376.4 100.377C376.031 100.623 375.772 100.991 375.614 101.481L371.824 112.774H375.023L375.688 110.651H379.812ZM376.262 108.311L377.778 103.283L379.239 108.311H376.262Z" fill="#3F3E36"/>
<path fill-rule="evenodd" clip-rule="evenodd" d="M395.955 106.491C395.955 107.5 395.816 108.387 395.53 109.16C395.243 109.934 394.846 110.594 394.319 111.132C393.801 111.67 393.172 112.075 392.442 112.358C391.711 112.632 390.898 112.774 389.992 112.774H386.811C386.275 112.774 385.868 112.632 385.572 112.358C385.276 112.085 385.128 111.698 385.128 111.198V101.755C385.128 101.245 385.276 100.849 385.572 100.566C385.868 100.283 386.284 100.142 386.811 100.142H390.019C390.925 100.142 391.748 100.283 392.479 100.575C393.209 100.868 393.829 101.283 394.346 101.821C394.864 102.368 395.262 103.028 395.539 103.821C395.816 104.613 395.955 105.5 395.955 106.491ZM392.812 106.491C392.812 105.264 392.553 104.311 392.035 103.632C391.517 102.943 390.787 102.604 389.844 102.604H388.327V110.311H389.945C390.851 110.311 391.563 109.991 392.063 109.34C392.562 108.698 392.812 107.755 392.812 106.491Z" fill="#3F3E36"/>
<path fill-rule="evenodd" clip-rule="evenodd" d="M404.655 110.651L405.284 112.774H408.52L404.896 101.462C404.739 101 404.47 100.642 404.101 100.387C403.731 100.123 403.259 100 402.695 100C402.094 100 401.614 100.132 401.244 100.377C400.874 100.623 400.615 100.991 400.458 101.481L396.667 112.774H399.866L400.532 110.651H404.655ZM401.105 108.311L402.621 103.283L404.082 108.311H401.105Z" fill="#3F3E36"/>
<path d="M412.745 112.774H409.981V102.028C409.981 101.368 410.175 100.877 410.573 100.538C410.97 100.198 411.525 100.028 412.246 100.028C412.792 100.028 413.235 100.142 413.578 100.368C413.92 100.594 414.188 100.887 414.373 101.255L418.053 108.368V100.151H420.817V110.915C420.817 111.557 420.623 112.047 420.225 112.387C419.828 112.717 419.282 112.887 418.57 112.887C418.237 112.887 417.951 112.84 417.692 112.755C417.442 112.66 417.22 112.547 417.035 112.396C416.851 112.245 416.684 112.075 416.545 111.877C416.407 111.679 416.277 111.472 416.176 111.245L412.745 104.575V112.774Z" fill="#3F3E36"/>
<path fill-rule="evenodd" clip-rule="evenodd" d="M434.547 109.245C434.852 108.453 435 107.528 435 106.491C435 105.462 434.852 104.547 434.565 103.736C434.279 102.943 433.872 102.264 433.336 101.717C432.8 101.17 432.162 100.755 431.413 100.472C430.664 100.189 429.832 100.047 428.926 100.047C428.019 100.047 427.187 100.189 426.429 100.481C425.671 100.764 425.024 101.189 424.488 101.736C423.951 102.283 423.535 102.953 423.23 103.755C422.925 104.557 422.777 105.462 422.777 106.481C422.777 107.5 422.925 108.406 423.212 109.208C423.498 110 423.905 110.679 424.441 111.226C424.978 111.774 425.616 112.189 426.355 112.472C427.095 112.755 427.927 112.896 428.833 112.896C429.739 112.896 430.581 112.755 431.339 112.481C432.106 112.208 432.753 111.802 433.29 111.255C433.826 110.717 434.251 110.047 434.547 109.245ZM430.997 103.453C431.505 104.16 431.764 105.17 431.764 106.481C431.764 107.811 431.524 108.821 431.024 109.519C430.525 110.217 429.822 110.566 428.916 110.566C427.982 110.566 427.271 110.217 426.762 109.509C426.253 108.802 426.004 107.792 426.004 106.481C426.004 105.17 426.244 104.16 426.734 103.453C427.224 102.745 427.927 102.396 428.833 102.396C429.767 102.396 430.488 102.745 430.997 103.453Z" fill="#3F3E36"/>
</svg>
